# xmcd
#
# Track frame offsets:
#	150
#	17683
#	36481
#	49427
#	67897
#	70629
#	85897
#	104937
#	123492
#	144412
#	164941
#	185036
#
# Disc length: 2731 seconds
#
# Revision: 0
# Processed by: cddbd v1.4PL0 Copyright (c) Steve Scherf et al.
# Submitted via: EasyCDDAExtractor 5.0.5.1
#
DISCID=b90aa90c
DTITLE=Papouskovo Sirotci - Ani Tak Nebolo
DYEAR=2002
DGENRE=Country
TTITLE0=Ani Tak Nebolo
TTITLE1=Svatebni
TTITLE2=Holky Z Nevestince
TTITLE3=Tu Kytaru Jsem Koupil Kvuli Tobe
TTITLE4=Ja Bych Si Rad Najal Dum
TTITLE5=Weekend S Tebou
TTITLE6=Schody Do Nebe
TTITLE7=Vsechno Vis Lip
TTITLE8=Pomaturitni Vecirek
TTITLE9=Ej Horo, Horo
TTITLE10=Tu Kytaru Jsem Koupil Kvuli tobe (h0remix)
TTITLE11=Ani Tak Nebolo (disco fever remix)
EXTD=
EXTT0=
EXTT1=
EXTT2=
EXTT3=
EXTT4=
EXTT5=
EXTT6=
EXTT7=
EXTT8=
EXTT9=
EXTT10=
EXTT11=
PLAYORDER=
